<svg width="45" height="47" viewBox="0 0 45 47" fill="none" xmlns="http://www.w3.org/2000/svg">
<mask id="mask0_193_32" style="mask-type:luminance" maskUnits="userSpaceOnUse" x="0" y="0" width="45" height="47">
<path d="M0.807312 0.583374H44.1979V47H0.807312V0.583374Z" fill="white"/>
</mask>
<g mask="url(#mask0_193_32)">
<mask id="mask1_193_32" style="mask-type:luminance" maskUnits="userSpaceOnUse" x="0" y="0" width="45" height="47">
<path d="M10.7917 0.583374H34.0729C36.7188 0.583374 39.2604 1.63546 41.1354 3.51046C43.0052 5.38025 44.0573 7.92191 44.0573 10.573V36.6875C44.0573 39.3386 43.0052 41.8802 41.1354 43.75C39.2604 45.625 36.7188 46.6771 34.0729 46.6771H10.7917C8.14585 46.6771 5.60419 45.625 3.72919 43.75C1.8594 41.8802 0.807312 39.3386 0.807312 36.6875V10.573C0.807312 7.92191 1.8594 5.38025 3.72919 3.51046C5.60419 1.63546 8.14585 0.583374 10.7917 0.583374Z" fill="white"/>
</mask>
<g mask="url(#mask1_193_32)">
<path d="M0.807312 0.583374H44.1979V46.323H0.807312V0.583374Z" fill="#3A6FF7"/>
</g>
</g>
<path d="M22.2269 15.8366C24.7373 15.8366 26.7946 13.7741 26.7946 11.222C26.7946 8.71159 24.7373 6.6543 22.2269 6.6543C19.6748 6.6543 17.6123 8.71159 17.6123 11.222C17.6123 13.7741 19.6748 15.8366 22.2269 15.8366ZM28.9769 36.3001C27.7008 36.3001 26.7529 35.8053 26.7529 33.5397V16.6595H26.5915C24.5706 18.6751 21.2789 19.9095 15.7633 20.0762V20.3626C17.8206 20.2793 18.2321 21.2272 18.2321 23.8626V33.5397C18.2321 35.8053 17.2842 36.3001 16.0081 36.3001H15.68V36.5866H29.3102V36.3001H28.9769Z" fill="white"/>
<mask id="mask2_193_32" style="mask-type:luminance" maskUnits="userSpaceOnUse" x="26" y="14" width="15" height="27">
<path d="M26.6146 14.875H40.7917V40.651H26.6146V14.875Z" fill="white"/>
</mask>
<g mask="url(#mask2_193_32)">
<path d="M26.6146 14.875H40.7865V41.1927H26.6146V14.875Z" fill="#3A6FF7"/>
</g>
<mask id="mask3_193_32" style="mask-type:luminance" maskUnits="userSpaceOnUse" x="4" y="18" width="15" height="23">
<path d="M4.16144 18.6771H18.3333V40.6511H4.16144V18.6771Z" fill="white"/>
</mask>
<g mask="url(#mask3_193_32)">
<path d="M4.16144 18.6771H18.3281V40.9427H4.16144V18.6771Z" fill="#3A6FF7"/>
</g>
<mask id="mask4_193_32" style="mask-type:luminance" maskUnits="userSpaceOnUse" x="18" y="20" width="9" height="18">
<path d="M18.3333 20.9219H26.6146V37.1979H18.3333V20.9219Z" fill="white"/>
</mask>
<g mask="url(#mask4_193_32)">
<path d="M18.3333 20.9219H26.4323V37.1198H18.3333V20.9219Z" fill="white"/>
</g>
</svg>
