<svg width="44" height="47" viewBox="0 0 44 47" fill="none" xmlns="http://www.w3.org/2000/svg">
<mask id="mask0_197_32" style="mask-type:luminance" maskUnits="userSpaceOnUse" x="0" y="0" width="44" height="47">
<path d="M0.270874 0.651062H43.9948V46.7188H0.270874V0.651062Z" fill="white"/>
</mask>
<g mask="url(#mask0_197_32)">
<mask id="mask1_197_32" style="mask-type:luminance" maskUnits="userSpaceOnUse" x="0" y="0" width="44" height="47">
<path d="M10.2396 0.651062H33.4896C36.1355 0.651062 38.6719 1.70315 40.5417 3.57294C42.4115 5.44273 43.4636 7.97919 43.4636 10.625V36.7084C43.4636 39.3542 42.4115 41.8906 40.5417 43.7604C38.6719 45.6302 36.1355 46.6823 33.4896 46.6823H10.2396C7.599 46.6823 5.06254 45.6302 3.18754 43.7604C1.31775 41.8906 0.270874 39.3542 0.270874 36.7084V10.625C0.270874 7.97919 1.31775 5.44273 3.18754 3.57294C5.06254 1.70315 7.599 0.651062 10.2396 0.651062Z" fill="white"/>
</mask>
<g mask="url(#mask1_197_32)">
<path d="M0.270874 0.651062H43.2136V46.7188H0.270874V0.651062Z" fill="#3A6FF7"/>
</g>
</g>
<path d="M21.659 15.8821C24.1694 15.8821 26.2215 13.8248 26.2215 11.2779C26.2215 8.76748 24.1694 6.71539 21.659 6.71539C19.1121 6.71539 17.0548 8.76748 17.0548 11.2779C17.0548 13.8248 19.1121 15.8821 21.659 15.8821ZM28.4038 36.3196C27.1278 36.3196 26.1798 35.8248 26.1798 33.5644V16.705H26.0184C24.0028 18.7206 20.7111 19.955 15.2059 20.1164V20.4029C17.258 20.3248 17.6694 21.2675 17.6694 23.9029V33.5644C17.6694 35.8248 16.7267 36.3196 15.4507 36.3196H15.1226V36.606H28.7319V36.3196H28.4038Z" fill="white"/>
<mask id="mask2_197_32" style="mask-type:luminance" maskUnits="userSpaceOnUse" x="26" y="14" width="15" height="27">
<path d="M26.0416 14.9271H40.1979V40.6666H26.0416V14.9271Z" fill="white"/>
</mask>
<g mask="url(#mask2_197_32)">
<path d="M26.0416 14.9271H40.1927V40.5312H26.0416V14.9271Z" fill="#3A6FF7"/>
</g>
<mask id="mask3_197_32" style="mask-type:luminance" maskUnits="userSpaceOnUse" x="3" y="18" width="15" height="23">
<path d="M3.61462 18.7188H17.7709V40.6667H3.61462V18.7188Z" fill="white"/>
</mask>
<g mask="url(#mask3_197_32)">
<path d="M3.61462 18.7188H17.7709V40.9583H3.61462V18.7188Z" fill="#3A6FF7"/>
</g>
<mask id="mask4_197_32" style="mask-type:luminance" maskUnits="userSpaceOnUse" x="17" y="20" width="10" height="18">
<path d="M17.7709 20.9636H26.0417V37.2136H17.7709V20.9636Z" fill="white"/>
</mask>
<g mask="url(#mask4_197_32)">
<path d="M17.7709 20.9636H25.8594V37.1354H17.7709V20.9636Z" fill="white"/>
</g>
</svg>
